# Blender v3.2.2 OBJ File: ''
# www.blender.org
mtllib Fridge.mtl
o Fridge
v 24.181377 6.600018 -111.500000
v 24.181377 6.600019 -115.662003
v 24.181377 6.430018 -111.500000
v 24.181377 6.430019 -115.662003
v 28.664177 6.600019 -115.662003
v 28.664177 6.600018 -111.500000
v 28.664177 6.430019 -115.662003
v 28.664177 6.430018 -111.500000
v 24.181377 6.600019 -115.662003
v 28.664177 6.600019 -115.662003
v 24.181377 6.430019 -115.662003
v 28.664177 6.430019 -115.662003
v 28.664177 6.600018 -111.500000
v 24.181377 6.600018 -111.500000
v 28.664177 6.430018 -111.500000
v 24.181377 6.430018 -111.500000
v 28.664177 6.600019 -115.662003
v 24.181377 6.600019 -115.662003
v 28.664177 6.600018 -111.500000
v 24.181377 6.600018 -111.500000
v 28.664177 6.430018 -111.500000
v 24.181377 6.430018 -111.500000
v 28.664177 6.430019 -115.662003
v 24.181377 6.430019 -115.662003
v 24.430977 5.209018 -111.430000
v 24.430977 5.209018 -111.500000
v 24.433876 5.209018 -111.430000
v 24.813877 5.209018 -111.430000
v 24.813877 5.209018 -111.370003
v 25.180977 5.209018 -111.430000
v 25.180977 5.209018 -111.500000
v 25.182579 5.209018 -111.430000
v 24.813877 5.209018 -111.430000
v 24.433876 5.209018 -111.430000
v 24.812576 5.209018 -111.370003
v 24.433876 5.209018 -111.430000
v 24.813179 5.209018 -111.370003
v 24.813877 5.209018 -111.370003
v 24.433876 5.209018 -111.430000
v 24.812576 5.209018 -111.370003
v 24.812576 6.089018 -111.430000
v 24.433876 6.089018 -111.430000
v 24.812576 6.089018 -111.370003
v 24.813179 6.089018 -111.370003
v 25.180977 6.089018 -111.430000
v 24.813877 6.089018 -111.370003
v 25.182579 6.089018 -111.430000
v 25.180977 6.089018 -111.500000
v 24.430977 6.089018 -111.500000
v 24.430977 6.089018 -111.430000
v 24.430977 5.209018 -111.500000
v 24.430977 5.209018 -111.430000
v 24.430977 6.089018 -111.500000
v 24.430977 6.089018 -111.430000
v 25.180977 6.059018 -111.440002
v 25.180977 5.234948 -111.500000
v 25.180977 6.089018 -111.500000
v 25.180977 5.239018 -111.440002
v 25.180977 6.059018 -111.430000
v 25.180977 6.063098 -111.430000
v 25.180977 6.089018 -111.430000
v 25.180977 5.209018 -111.500000
v 25.180977 5.239018 -111.430000
v 25.180977 5.209018 -111.430000
v 24.430977 5.209018 -111.500000
v 24.430977 6.089018 -111.500000
v 25.180977 5.209018 -111.500000
v 25.180977 6.089018 -111.500000
v 24.433876 5.209018 -111.430000
v 24.812576 5.209018 -111.370003
v 24.433876 6.089018 -111.430000
v 24.812576 6.089018 -111.370003
v 24.812576 5.209018 -111.370003
v 24.812576 6.089018 -111.370003
v 24.812576 6.089018 -111.430000
v 24.813877 6.089018 -111.370003
v 24.813179 6.089018 -111.370003
v 24.813877 5.209018 -111.370003
v 24.813179 5.209018 -111.370003
v 24.812576 5.209018 -111.370003
v 24.813179 5.209018 -111.370003
v 24.812576 6.089018 -111.370003
v 24.813179 6.089018 -111.370003
v 24.813179 6.089018 -111.370003
v 24.812576 6.089018 -111.370003
v 24.813877 6.089018 -111.370003
v 24.813877 5.209018 -111.370003
v 24.813179 5.209018 -111.370003
v 24.812576 5.209018 -111.370003
v 24.820976 6.059018 -111.371002
v 25.182579 6.089018 -111.430000
v 24.813877 6.089018 -111.370003
v 25.182579 6.059018 -111.430000
v 24.820976 5.239018 -111.371002
v 24.813877 5.209018 -111.370003
v 25.182579 5.209018 -111.430000
v 25.182579 5.239018 -111.430000
v 25.180977 6.089018 -111.430000
v 25.182579 6.089018 -111.430000
v 25.180977 6.063098 -111.430000
v 25.182579 6.059018 -111.430000
v 25.180977 6.059018 -111.430000
v 25.180977 5.209018 -111.430000
v 25.180977 5.239018 -111.430000
v 25.182579 5.209018 -111.430000
v 25.182579 5.239018 -111.430000
v 24.433876 5.209018 -111.430000
v 24.430977 5.209018 -111.430000
v 24.813877 6.089018 -111.370003
v 24.813179 6.089018 -111.370003
v 24.812576 6.089018 -111.430000
v 24.430977 6.089018 -111.500000
v 24.433876 6.089018 -111.430000
v 24.812576 6.089018 -111.430000
v 24.430977 6.089018 -111.430000
v 25.180977 6.089018 -111.500000
v 25.180977 5.234948 -111.500000
v 25.180977 5.209018 -111.500000
v 24.813877 5.209018 -111.430000
v 24.813877 5.209018 -111.370003
v 24.813877 6.089018 -111.370003
v 24.433876 5.209018 -111.430000
v 24.433876 6.089018 -111.430000
v 24.430977 5.209018 -111.430000
v 24.430977 6.089018 -111.430000
v 24.820976 5.239018 -111.440002
v 25.180977 5.239018 -111.440002
v 24.820976 6.059018 -111.440002
v 25.180977 6.059018 -111.440002
v 24.820976 5.239018 -111.371002
v 24.820976 5.239018 -111.440002
v 24.820976 6.059018 -111.371002
v 24.820976 6.059018 -111.440002
v 24.820976 6.059018 -111.440002
v 25.180977 6.059018 -111.440002
v 24.820976 6.059018 -111.371002
v 25.180977 6.059018 -111.430000
v 25.182579 6.059018 -111.430000
v 25.180977 5.239018 -111.440002
v 24.820976 5.239018 -111.440002
v 25.180977 5.239018 -111.430000
v 24.820976 5.239018 -111.371002
v 25.182579 5.239018 -111.430000
v 28.664177 6.430019 -115.662003
v 24.181377 6.430019 -115.662003
v 28.664177 6.430018 -112.000000
v 24.181377 6.430018 -112.000000
v 28.664177 0.000018 -112.000000
v 24.181377 0.000018 -112.000000
v 28.664177 0.000019 -115.662003
v 24.181377 0.000019 -115.662003
v 24.181377 6.430018 -112.000000
v 24.181377 6.430019 -115.662003
v 24.181377 0.000018 -112.000000
v 24.181377 0.000019 -115.662003
v 28.664177 6.430019 -115.662003
v 28.664177 6.430018 -112.000000
v 28.664177 0.000019 -115.662003
v 28.664177 0.000018 -112.000000
v 24.181377 6.430019 -115.662003
v 28.664177 6.430019 -115.662003
v 24.181377 0.000019 -115.662003
v 28.664177 0.000019 -115.662003
v 28.664177 6.430018 -112.000000
v 24.181377 6.430018 -112.000000
v 28.664177 0.000018 -112.000000
v 24.181377 0.000018 -112.000000
v 24.181377 6.400018 -111.500000
v 28.664177 6.400018 -111.500000
v 24.181377 6.400018 -111.862000
v 28.664177 6.400018 -111.862000
v 24.181377 0.000018 -111.862000
v 28.664177 0.000018 -111.862000
v 24.181377 0.000018 -111.500000
v 28.664177 0.000018 -111.500000
v 28.664177 6.400018 -111.862000
v 28.664177 6.400018 -111.500000
v 28.664177 0.000018 -111.862000
v 28.664177 0.000018 -111.500000
v 24.181377 6.400018 -111.500000
v 24.181377 6.400018 -111.862000
v 24.181377 0.000018 -111.500000
v 24.181377 0.000018 -111.862000
v 28.664177 6.400018 -111.500000
v 24.181377 6.400018 -111.500000
v 28.664177 0.000018 -111.500000
v 24.181377 0.000018 -111.500000
v 24.181377 6.400018 -111.862000
v 28.664177 6.400018 -111.862000
v 24.181377 0.000018 -111.862000
v 28.664177 0.000018 -111.862000
v 28.581078 6.400018 -112.024002
v 24.298378 6.400018 -112.024002
v 28.581078 6.400018 -111.862000
v 24.298378 6.400018 -111.862000
v 28.581078 0.000018 -111.862000
v 24.298378 0.000018 -111.862000
v 28.581078 0.000018 -112.024002
v 24.298378 0.000018 -112.024002
v 24.298378 6.400018 -111.862000
v 24.298378 6.400018 -112.024002
v 24.298378 0.000018 -111.862000
v 24.298378 0.000018 -112.024002
v 28.581078 6.400018 -112.024002
v 28.581078 6.400018 -111.862000
v 28.581078 0.000018 -112.024002
v 28.581078 0.000018 -111.862000
v 24.298378 6.400018 -112.024002
v 28.581078 6.400018 -112.024002
v 24.298378 0.000018 -112.024002
v 28.581078 0.000018 -112.024002
v 28.581078 6.400018 -111.862000
v 24.298378 6.400018 -111.862000
v 28.581078 0.000018 -111.862000
v 24.298378 0.000018 -111.862000
vt 0.863104 0.458245
vt 0.754990 0.458245
vt 0.863104 0.453865
vt 0.754990 0.453865
vt 0.618583 0.458245
vt 0.510469 0.458245
vt 0.618583 0.453865
vt 0.510469 0.453865
vt 0.745010 0.458245
vt 0.628563 0.458245
vt 0.745010 0.453865
vt 0.628563 0.453865
vt 0.989531 0.458245
vt 0.873085 0.458245
vt 0.989531 0.453865
vt 0.873085 0.453865
vt 0.628563 0.464324
vt 0.745010 0.464324
vt 0.628563 0.571558
vt 0.745010 0.571558
vt 0.628563 0.340552
vt 0.745010 0.340552
vt 0.628563 0.447786
vt 0.745010 0.447786
vt 0.513679 0.260294
vt 0.513679 0.255896
vt 0.513862 0.260294
vt 0.537919 0.260294
vt 0.537919 0.264064
vt 0.561158 0.260294
vt 0.561158 0.255896
vt 0.561260 0.260294
vt 0.989531 0.650487
vt 0.773156 0.972560
vt 0.773156 0.650487
vt 0.989531 0.972560
vt 0.537837 0.264064
vt 0.513862 0.260294
vt 0.537875 0.264064
vt 0.537919 0.264064
vt 0.745010 0.650487
vt 0.528634 0.972560
vt 0.528634 0.650487
vt 0.745010 0.972560
vt 0.537837 0.327108
vt 0.513862 0.327108
vt 0.537837 0.323338
vt 0.537875 0.323338
vt 0.561158 0.327108
vt 0.537919 0.323338
vt 0.561260 0.327108
vt 0.561158 0.331506
vt 0.513679 0.331506
vt 0.513679 0.327108
vt 0.502969 0.266054
vt 0.507400 0.266054
vt 0.502969 0.321348
vt 0.507400 0.321348
vt 0.568172 0.319463
vt 0.571970 0.267683
vt 0.571970 0.321348
vt 0.568172 0.267939
vt 0.567538 0.319463
vt 0.567538 0.319720
vt 0.567538 0.321348
vt 0.571970 0.266054
vt 0.567538 0.267939
vt 0.567538 0.266054
vt 0.622031 0.266054
vt 0.622031 0.321348
vt 0.574552 0.266054
vt 0.574552 0.321348
vt 0.513862 0.266054
vt 0.537837 0.266054
vt 0.513862 0.321348
vt 0.537837 0.321348
vt 0.518654 0.650487
vt 0.510469 0.972560
vt 0.510469 0.650487
vt 0.518654 0.972560
vt 0.763175 0.650487
vt 0.754990 0.972560
vt 0.754990 0.650487
vt 0.763175 0.972560
vt 0.537919 0.321348
vt 0.537875 0.321348
vt 0.537919 0.266054
vt 0.537875 0.266054
vt 0.537837 0.266054
vt 0.537875 0.266054
vt 0.537837 0.321348
vt 0.537875 0.321348
vt 0.528634 0.641087
vt 0.745010 0.632935
vt 0.745010 0.641087
vt 0.528634 0.632935
vt 0.528634 0.990112
vt 0.745010 0.981960
vt 0.745010 0.990112
vt 0.528634 0.981960
vt 0.489531 0.246484
vt 0.281750 0.542578
vt 0.281750 0.246484
vt 0.538368 0.319463
vt 0.561260 0.321348
vt 0.537919 0.321348
vt 0.561260 0.319463
vt 0.538368 0.267939
vt 0.537919 0.266054
vt 0.561260 0.266054
vt 0.561260 0.267939
vt 0.574552 0.321348
vt 0.574450 0.321348
vt 0.574552 0.319720
vt 0.574450 0.319463
vt 0.574552 0.319463
vt 0.574552 0.266054
vt 0.574552 0.267939
vt 0.574450 0.266054
vt 0.574450 0.267939
vt 0.489531 0.542578
vt 0.245010 0.246484
vt 0.037228 0.542578
vt 0.037228 0.246484
vt 0.245010 0.542578
vt 0.027248 0.246484
vt 0.010469 0.542578
vt 0.010469 0.246484
vt 0.567538 0.321348
vt 0.567538 0.321348
vt 0.567538 0.321348
vt 0.027248 0.542578
vt 0.571970 0.321348
vt 0.571970 0.267683
vt 0.571970 0.266054
vt 0.271769 0.246484
vt 0.254990 0.542578
vt 0.254990 0.246484
vt 0.271769 0.542578
vt 0.037228 0.237329
vt 0.245010 0.220581
vt 0.245010 0.237329
vt 0.037228 0.220581
vt 0.513862 0.266054
vt 0.513862 0.321348
vt 0.513679 0.266054
vt 0.513679 0.321348
vt 0.538368 0.267939
vt 0.561158 0.267939
vt 0.538368 0.319463
vt 0.561158 0.319463
vt 0.563803 0.267939
vt 0.568172 0.267939
vt 0.563803 0.319463
vt 0.568172 0.319463
vt 0.538368 0.259666
vt 0.561158 0.259666
vt 0.538368 0.264002
vt 0.561158 0.260294
vt 0.561260 0.260294
vt 0.561158 0.327736
vt 0.538368 0.327736
vt 0.561158 0.327108
vt 0.538368 0.323401
vt 0.561260 0.327108
vt 0.121414 0.888131
vt 0.245010 0.888131
vt 0.121414 0.988989
vt 0.245010 0.988989
vt 0.121414 0.589136
vt 0.245010 0.589136
vt 0.121414 0.689994
vt 0.245010 0.689994
vt 0.355956 0.877609
vt 0.254990 0.877609
vt 0.355956 0.700516
vt 0.254990 0.700516
vt 0.111434 0.877609
vt 0.010469 0.877609
vt 0.111434 0.700516
vt 0.010469 0.700516
vt 0.245010 0.877609
vt 0.121414 0.877609
vt 0.245010 0.700516
vt 0.121414 0.700516
vt 0.489531 0.877609
vt 0.365936 0.877609
vt 0.489531 0.700516
vt 0.365936 0.700516
vt 0.037228 0.551733
vt 0.245010 0.551733
vt 0.037228 0.568481
vt 0.245010 0.568481
vn -1.0000 0.0000 0.0000
vn 1.0000 0.0000 0.0000
vn 0.0000 0.0000 -1.0000
vn 0.0000 0.0000 1.0000
vn 0.0000 1.0000 0.0000
vn 0.0000 -1.0000 -0.0000
vn -0.0000 -1.0000 0.0035
vn -0.1580 0.0000 0.9874
vn -0.1579 -0.0011 0.9875
vn -0.1579 -0.0014 0.9875
vn -0.1580 -0.0014 0.9874
vn -0.0000 1.0000 0.0050
vn 0.1580 0.0000 0.9874
vn 0.0000 -1.0000 -0.0050
vn 0.0000 1.0000 -0.0025
usemtl material_atlas_40704_1
s off
f 1/1/1 2/2/1 3/3/1
f 3/3/1 2/2/1 4/4/1
f 5/5/2 6/6/2 7/7/2
f 7/7/2 6/6/2 8/8/2
f 9/9/3 10/10/3 11/11/3
f 11/11/3 10/10/3 12/12/3
f 13/13/4 14/14/4 15/15/4
f 15/15/4 14/14/4 16/16/4
f 17/17/5 18/18/5 19/19/5
f 19/19/5 18/18/5 20/20/5
f 21/21/6 22/22/6 23/23/6
f 23/23/6 22/22/6 24/24/6
f 25/25/6 26/26/6 27/27/6
f 28/28/6 27/27/6 26/26/6
f 28/28/6 29/29/6 27/27/6
f 30/30/6 28/28/6 26/26/6
f 28/28/6 30/30/6 29/29/6
f 31/31/6 30/30/6 26/26/6
f 29/29/7 30/30/7 32/32/7
f 214/33/4 213/34/4 215/35/4
f 212/36/4 213/34/4 214/33/4
f 35/37/8 36/38/8 37/39/8
f 36/38/9 38/40/10 37/39/11
f 210/41/3 209/42/3 211/43/3
f 208/44/3 209/42/3 210/41/3
f 41/45/5 42/46/5 43/47/5
f 41/45/5 43/47/5 44/48/5
f 45/49/5 41/45/5 44/48/5
f 46/50/5 45/49/5 44/48/5
f 47/51/12 45/49/12 46/50/12
f 41/45/5 45/49/5 48/52/5
f 49/53/5 41/45/5 48/52/5
f 50/54/5 41/45/5 49/53/5
f 51/55/1 52/56/1 53/57/1
f 52/56/1 54/58/1 53/57/1
f 55/59/2 56/60/2 57/61/2
f 58/62/2 56/60/2 55/59/2
f 55/59/2 57/61/2 59/63/2
f 57/61/2 60/64/2 59/63/2
f 57/61/2 61/65/2 60/64/2
f 56/60/2 58/62/2 62/66/2
f 58/62/2 63/67/2 62/66/2
f 63/67/2 64/68/2 62/66/2
f 65/69/3 66/70/3 67/71/3
f 66/70/3 68/72/3 67/71/3
f 69/73/8 70/74/8 71/75/8
f 70/74/8 72/76/8 71/75/8
f 206/77/2 205/78/2 207/79/2
f 204/80/2 205/78/2 206/77/2
f 202/81/1 201/82/1 203/83/1
f 200/84/1 201/82/1 202/81/1
f 76/85/8 77/86/8 78/87/8
f 77/86/8 79/88/8 78/87/8
f 80/89/13 81/90/13 82/91/13
f 81/90/13 83/92/13 82/91/13
f 198/93/6 197/94/6 199/95/6
f 196/96/6 197/94/6 198/93/6
f 194/97/5 193/98/5 195/99/5
f 192/100/5 193/98/5 194/97/5
f 190/101/3 189/102/3 191/103/3
f 90/104/13 91/105/13 92/106/13
f 93/107/13 91/105/13 90/104/13
f 90/104/13 92/106/13 94/108/13
f 94/108/13 92/106/13 95/109/13
f 95/109/13 96/110/13 94/108/13
f 96/110/13 97/111/13 94/108/13
f 98/112/3 99/113/3 100/114/3
f 99/113/3 101/115/3 100/114/3
f 101/115/3 102/116/3 100/114/3
f 103/117/3 104/118/3 105/119/3
f 104/118/3 106/120/3 105/119/3
f 188/121/3 189/102/3 190/101/3
f 186/122/4 185/123/4 187/124/4
f 184/125/4 185/123/4 186/122/4
f 182/126/1 181/127/1 183/128/1
f 113/129/4 114/130/4 115/131/4
f 180/132/1 181/127/1 182/126/1
f 116/133/3 117/134/3 118/135/3
f 178/136/2 177/137/2 179/138/2
f 176/139/2 177/137/2 178/136/2
f 174/140/6 173/141/6 175/142/6
f 172/143/6 173/141/6 174/140/6
f 122/144/4 123/145/4 124/146/4
f 123/145/4 125/147/4 124/146/4
f 126/148/4 127/149/4 128/150/4
f 127/149/4 129/151/4 128/150/4
f 130/152/2 131/153/2 132/154/2
f 131/153/2 133/155/2 132/154/2
f 134/156/6 135/157/6 136/158/6
f 135/157/6 137/159/6 136/158/6
f 138/160/14 136/158/14 137/159/14
f 139/161/5 140/162/5 141/163/5
f 140/162/5 142/164/5 141/163/5
f 141/163/15 142/164/15 143/165/15
f 144/166/5 145/167/5 146/168/5
f 146/168/5 145/167/5 147/169/5
f 148/170/6 149/171/6 150/172/6
f 150/172/6 149/171/6 151/173/6
f 152/174/1 153/175/1 154/176/1
f 154/176/1 153/175/1 155/177/1
f 156/178/2 157/179/2 158/180/2
f 158/180/2 157/179/2 159/181/2
f 160/182/3 161/183/3 162/184/3
f 162/184/3 161/183/3 163/185/3
f 164/186/4 165/187/4 166/188/4
f 166/188/4 165/187/4 167/189/4
f 168/190/5 169/191/5 170/192/5
f 170/192/5 169/191/5 171/193/5
